<svg fill="none" height="170" viewBox="0 0 217 170" width="217" xmlns="http://www.w3.org/2000/svg" xmlns:xlink="http://www.w3.org/1999/xlink"><clipPath id="a"><path d="m0 0h53.1821v53.1821h-53.1821z" transform="matrix(.996576 -.104609 0 1 23 75.5632)"/></clipPath><clipPath id="b"><path d="m0 0h48v48h-48z" transform="matrix(.93894241 .34407434 -.34407434 .93894241 79.5156 0)"/></clipPath><clipPath id="c"><path d="m0 0h53.6245v53.6245h-53.6245z" transform="matrix(-.93894421 -.34406942 .34406942 -.93894421 131.351 169.801)"/></clipPath><path clip-rule="evenodd" d="m17.8322 128.34v-52.5288c0-2.2912.6994-3.3496 2.796-3.5277l56.8157-3.348c1.9273-.1762 2.7999 1.0587 2.7999 3.348v14.2436 37.9329c0 2.293-.3507 4.235-3.4987 4.409l-54.3683 3.175c-3.1464.175-4.5446-.881-4.5446-3.704z" fill="#fff" fill-rule="evenodd"/><path d="m23.3425 65.9809c-4.7241.3219-5.7976.395-8.4805-1.8046l-6.8223-5.4643c-.69578-.7066-.34684-1.5879 1.40026-1.7629l23.95134-1.7629 23.9514-1.7629c4.0197-.3533 6.1173 1.0593 7.6914 2.2924l8.2163 5.9941c.3498.1756 1.2224 1.2319.1729 1.2319l-49.4709 2.9978z" fill="#fff"/><g clip-rule="evenodd" fill-rule="evenodd"><path d="m55.2446 48.4871-49.82674 3.7028c-4.01761.3512-5.41786 2.9963-5.41786 6.1673v54.9978c0 2.471.872652 4.583 2.97168 7.406l11.71282 15.336c1.924 2.469 3.6723 2.997 7.3461 2.821l57.8634-3.526c4.8938-.351 6.2938-2.645 6.2938-6.523v-61.8732c0-2.0047-.7859-2.5838-3.1028-4.2908-.1275-.0937-.2597-.191-.3965-.2922l-15.9052-11.2814c-3.8459-2.8192-5.42-3.174-11.5387-2.6443zm-31.9021 17.4938c-4.7241.3219-5.7976.395-8.4805-1.8046l-6.8223-5.4643c-.69578-.7066-.34684-1.5879 1.40026-1.7629l47.90274-3.5258c4.0197-.3533 6.1173 1.0593 7.6914 2.2924l8.2162 5.9941c.3499.1756 1.2225 1.2319.173 1.2319l-49.4709 2.9978zm-5.5103 62.3591v-52.5288c0-2.2912.6994-3.3496 2.796-3.5277l56.8157-3.348c1.9273-.1762 2.7999 1.0587 2.7999 3.348v14.2436 37.9329c0 2.293-.3507 4.235-3.4987 4.409l-54.3683 3.175c-3.1464.175-4.5446-.881-4.5446-3.704z" fill="#000"/><path d="m176.188 23.4401-49.167 8.8908c-3.958.7692-5.075 3.5462-4.743 6.6998l5.749 54.6964c.258 2.4575 1.347 4.4667 3.729 7.0549l13.252 14.027c2.172 2.255 3.966 2.598 7.601 2.038l57.178-9.555c4.83-.861 5.982-3.288 5.577-7.144l-6.467-61.5351c-.21-1.9937-1.052-2.4874-3.535-3.9429-.136-.0798-.278-.1628-.425-.2492l-16.997-9.557c-4.119-2.4018-5.722-2.5901-11.752-1.4237zm-29.899 20.7326c-4.664.8139-5.724.9989-8.622-.9083l-7.356-4.7212c-.766-.63-.511-1.5429 1.208-1.8996l47.272-8.5137c3.961-.7715 6.194.4141 7.889 1.4759l8.797 5.1024c.367.1381 1.345 1.0974.301 1.2071l-48.886 8.1525zm1.039 62.5933-5.491-52.2409c-.24-2.2786.345-3.4043 2.412-3.8005l56.154-9.2686c1.899-.3767 2.896.7602 3.135 3.0371l1.489 14.1655 3.965 37.725c.24 2.2808.094 4.2484-3.019 4.7514l-53.738 8.84c-3.111.503-4.612-.401-4.907-3.209zm48.182-55.0489c.513 1.543.332 3.1572-1.217 3.4996l-2.551.7977 4.054 38.5674c-2.133 1.4647-4.145 2.3855-5.883 2.5681-2.783.2925-3.572-.5116-5.933-2.9207l-19.879-25.2064 2.746 26.121 5.521.6611s.332 3.1542-4.019 3.6115l-11.92 1.9626c-.422-.665-.257-2.4538.922-2.9327l3.038-1.2042-3.63-34.5368-4.383.1054c-.514-1.5426.114-3.9109 2.532-4.3437l12.774-2.2276 20.609 25.4849-2.542-24.1937-4.577-.0484c-.55-1.8944.691-3.4422 2.412-3.7991z" fill="#000"/><path d="m147.328 106.766-5.491-52.2409c-.24-2.2786.345-3.4043 2.412-3.8005l56.154-9.2686c1.899-.3767 2.896.7602 3.135 3.0371l1.489 14.1655 3.965 37.725c.24 2.2808.094 4.2484-3.019 4.7514l-53.738 8.84c-3.111.503-4.612-.401-4.907-3.209zm46.965-51.5493c1.549-.3424 1.73-1.9566 1.217-3.4996l-11.926 1.966c-1.721.3569-2.962 1.9047-2.412 3.7991l4.577.0484 2.542 24.1937-20.609-25.4849-12.774 2.2276c-2.418.4328-3.046 2.8011-2.532 4.3437l4.383-.1054 3.63 34.5368-3.038 1.2042c-1.179.4789-1.344 2.2677-.922 2.9327l11.92-1.9626c4.351-.4573 4.019-3.6115 4.019-3.6115l-5.521-.6611-2.746-26.121 19.879 25.2064c2.361 2.4091 3.15 3.2132 5.933 2.9208 1.738-.1827 3.75-1.1035 5.883-2.5682l-4.054-38.5674z" fill="#fff"/></g><path d="m146.289 44.1727c-4.664.8139-5.724.9989-8.622-.9083l-7.356-4.7212c-.766-.63-.511-1.5429 1.208-1.8996l47.272-8.5137c3.961-.7715 6.194.4141 7.889 1.4759l8.797 5.1024c.367.1381 1.345 1.0974.301 1.2071l-48.886 8.1525z" fill="#fff"/><g clip-path="url(#a)"><path d="m69.375 77.3431-39.75 4.1725v39.8864l39.75-4.172z" fill="#eceff1"/><path d="m49.5 103.568 19.875 13.662v-31.0916z" fill="#cfd8dc"/><path d="m71.0312 77.1692-1.6562.1738-19.875 17.8348-19.875-13.6623-1.6563.1739c-2.7427.2879-4.9687 2.7552-4.9687 5.5074v29.9152c0 2.752 2.226 4.752 4.9687 4.464l1.6563-.174v-31.0915l19.875 13.2535 19.875-17.4293v31.0953l1.6562-.174c2.7428-.288 4.9688-2.755 4.9688-5.508v-29.9146c0-2.7521-2.226-4.7521-4.9688-4.4642z" fill="#f44336"/></g><g clip-path="url(#b)"><path d="m106.25 26.5744c-6.8911-2.4551-14.4733-2.0891-21.0963 1.0183-6.6229 3.1073-11.7507 8.7046-14.2675 15.5737-.2053.5603-.6248 1.0161-1.1662 1.2671s-1.1603.2767-1.7206.0714-1.0161-.6248-1.2671-1.1662-.2767-1.1603-.0713-1.7206c2.9216-7.9957 8.8891-14.5102 16.5986-18.1201 7.7094-3.61 16.5343-4.0221 24.5464-1.1462l2.04 3.1407zm-4.251 7.5447 14.364-4.3216c.334-.1006.641-.2778.895-.5174s.449-.5351.569-.863c.12-.328.163-.6795.123-1.0266-.039-.3471-.158-.6803-.349-.9732l-8.17-12.5794c-.325-.5004-.836-.8512-1.419-.9752-.584-.1241-1.193-.0111-1.694.3139-.5.3251-.851.8356-.975 1.4193s-.011 1.1928.314 1.6932l6.537 10.0635-11.492 3.4573c-.283.0851-.546.2251-.7748.4121-.2289.1869-.4186.4171-.5585.6773-.1399.2603-.2271.5456-.2568.8396-.0296.2939-.001.5909.0841.8738.1719.5715.5638 1.0512 1.089 1.3337.261.1399.546.2271.84.2567.294.0297.591.0011.874-.084z" fill="#000"/></g><g clip-path="url(#c)"><path d="m101.483 140.113c7.699 2.743 16.17 2.334 23.569-1.138 7.399-3.471 13.128-9.724 15.939-17.398.23-.626.698-1.135 1.303-1.416.605-.28 1.296-.309 1.922-.079.626.229 1.135.698 1.416 1.302.28.605.309 1.297.08 1.923-3.264 8.932-9.931 16.21-18.544 20.243s-18.472 4.493-27.423 1.28l-2.279-3.508zm4.75-8.429-16.0472 4.828c-.3736.113-.716.311-1 .578-.2839.268-.5017.598-.6359.964-.1343.367-.1814.76-.1376 1.147.0437.388.1772.76.3897 1.088l9.1281 14.053c.3631.559.9335.951 1.5856 1.09.6523.138 1.3323.012 1.8913-.351s.951-.934 1.09-1.586c.138-.652.012-1.332-.351-1.891l-7.3023-11.243 12.8373-3.863c.316-.095.611-.251.866-.46.256-.209.468-.466.624-.757.157-.29.254-.609.287-.938.033-.328.001-.66-.094-.976-.192-.638-.63-1.174-1.217-1.49-.291-.156-.609-.253-.938-.287-.328-.033-.66-.001-.976.094z" fill="#000"/></g></svg>